# xmcd CD database file
#
# Track frame offsets:
#	150
#	12142
#	24728
#	40400
#	53754
#	65748
#	81523
#	98025
#	110088
#	123889
#	137888
#
# Disc length: 2054 seconds
#
# Revision: 0
# Processed by: cddbd v1.5.2PL0 Copyright (c) Steve Scherf et al.
# Submitted via: CDex 1.70beta2
#
DISCID=9808040b
DTITLE=Cochrane, Don - OVCMHoF - 2005 - Sit By My Side
DYEAR=1900
DGENRE=Country
TTITLE0=Whistle On the River
TTITLE1=Remember Me, I'm the One Who Loves You
TTITLE2=A Little Bit South of Saskatoon
TTITLE3=Pretty Words
TTITLE4=Blue Canadian Rockies
TTITLE5=I Recall A Gypsy Woman
TTITLE6=How I Love Them Old Songs
TTITLE7=Countyfied
TTITLE8=How's the World Treating You
TTITLE9=It Makes No Difference Now
TTITLE10=Changes
EXTD=
EXTT0=
EXTT1=
EXTT2=
EXTT3=
EXTT4=
EXTT5=
EXTT6=
EXTT7=
EXTT8=
EXTT9=
EXTT10=
PLAYORDER=
